<svg xmlns="http://www.w3.org/2000/svg" width="10" height="10" viewBox="0 0 10 10" shape-rendering="crispEdges">
  <g fill="#1f2630">
    <rect x="3" y="0" width="4" height="1"/>
    <rect x="2" y="1" width="1" height="1"/>
    <rect x="7" y="1" width="1" height="1"/>
    <rect x="1" y="2" width="1" height="1"/>
    <rect x="8" y="2" width="1" height="1"/>
    <rect x="0" y="3" width="1" height="4"/>
    <rect x="9" y="3" width="1" height="4"/>
    <rect x="1" y="7" width="1" height="1"/>
    <rect x="8" y="7" width="1" height="1"/>
    <rect x="2" y="8" width="1" height="1"/>
    <rect x="7" y="8" width="1" height="1"/>
    <rect x="3" y="9" width="4" height="1"/>
  </g>
  <g fill="#3fc24a">
    <rect x="3" y="1" width="4" height="1"/>
    <rect x="2" y="2" width="6" height="1"/>
    <rect x="1" y="3" width="2" height="4"/>
    <rect x="7" y="3" width="2" height="4"/>
    <rect x="2" y="7" width="6" height="1"/>
    <rect x="3" y="8" width="4" height="1"/>
  </g>
  <g fill="#1e7d28">
    <rect x="3" y="3" width="4" height="4"/>
  </g>
</svg>
